{
  "accessors": [
    {
      "bufferView": 2,
      "componentType": 5126,
      "count": 479,
      "max": [
        120.67179870605469,
        112.39168548583984,
        314.8110046386719
      ],
      "min": [
        -120.67179870605469,
        -110.21003723144531,
        -326.35711669921875
      ],
      "type": "VEC3"
    },
    {
      "bufferView": 2,
      "byteOffset": 5748,
      "componentType": 5126,
      "count": 479,
      "max": [
        1.0,
        1.0,
        0.9244356751441956
      ],
      "min": [
        -1.0,
        -0.696767270565033,
        -0.9998804926872253
      ],
      "type": "VEC3"
    },
    {
      "bufferView": 1,
      "componentType": 5126,
      "count": 479,
      "max": [
        1.8713910579681396,
        0.9815502166748047
      ],
      "min": [
        -0.4501931071281433,
        0.003012537956237793
      ],
      "type": "VEC2"
    },
    {
      "bufferView": 1,
      "byteOffset": 3832,
      "componentType": 5126,
      "count": 479,
      "max": [
        1.8713910579681396,
        0.9815502166748047
      ],
      "min": [
        -0.4501931071281433,
        0.003012537956237793
      ],
      "type": "VEC2"
    },
    {
      "bufferView": 1,
      "byteOffset": 7664,
      "componentType": 5126,
      "count": 479,
      "max": [
        1.8713910579681396,
        0.9815502166748047
      ],
      "min": [
        -0.4501931071281433,
        0.003012537956237793
      ],
      "type": "VEC2"
    },
    {
      "bufferView": 1,
      "byteOffset": 11496,
      "componentType": 5126,
      "count": 479,
      "max": [
        1.8713910579681396,
        0.9815502166748047
      ],
      "min": [
        -0.4501931071281433,
        0.003012537956237793
      ],
      "type": "VEC2"
    },
    {
      "bufferView": 1,
      "byteOffset": 15328,
      "componentType": 5126,
      "count": 479,
      "max": [
        1.8713910579681396,
        0.9815502166748047
      ],
      "min": [
        -0.4501931071281433,
        0.003012537956237793
      ],
      "type": "VEC2"
    },
    {
      "bufferView": 1,
      "byteOffset": 19160,
      "componentType": 5126,
      "count": 479,
      "max": [
        1.8713910579681396,
        0.9815502166748047
      ],
      "min": [
        -0.4501931071281433,
        0.003012537956237793
      ],
      "type": "VEC2"
    },
    {
      "bufferView": 0,
      "componentType": 5125,
      "count": 1254,
      "type": "SCALAR"
    },
    {
      "bufferView": 2,
      "byteOffset": 11496,
      "componentType": 5126,
      "count": 14238,
      "max": [
        120.4873046875,
        126.85396575927734,
        326.35711669921875
      ],
      "min": [
        -120.41764068603516,
        -126.85396575927734,
        -325.99298095703125
      ],
      "type": "VEC3"
    },
    {
      "bufferView": 2,
      "byteOffset": 182352,
      "componentType": 5126,
      "count": 14238,
      "max": [
        1.0,
        1.0,
        1.0
      ],
      "min": [
        -1.0,
        -1.0,
        -1.0
      ],
      "type": "VEC3"
    },
    {
      "bufferView": 1,
      "byteOffset": 22992,
      "componentType": 5126,
      "count": 14238,
      "max": [
        0.986760675907135,
        0.9954801201820374
      ],
      "min": [
        0.0026330950204283,
        0.0048663620837032795
      ],
      "type": "VEC2"
    },
    {
      "bufferView": 1,
      "byteOffset": 136896,
      "componentType": 5126,
      "count": 14238,
      "max": [
        0.986760675907135,
        0.9954801201820374
      ],
      "min": [
        0.0026330950204283,
        0.0048663620837032795
      ],
      "type": "VEC2"
    },
    {
      "bufferView": 1,
      "byteOffset": 250800,
      "componentType": 5126,
      "count": 14238,
      "max": [
        0.986760675907135,
        0.9954801201820374
      ],
      "min": [
        0.0026330950204283,
        0.0048663620837032795
      ],
      "type": "VEC2"
    },
    {
      "bufferView": 1,
      "byteOffset": 364704,
      "componentType": 5126,
      "count": 14238,
      "max": [
        0.986760675907135,
        0.9954801201820374
      ],
      "min": [
        0.0026330950204283,
        0.0048663620837032795
      ],
      "type": "VEC2"
    },
    {
      "bufferView": 1,
      "byteOffset": 478608,
      "componentType": 5126,
      "count": 14238,
      "max": [
        0.986760675907135,
        0.9954801201820374
      ],
      "min": [
        0.0026330950204283,
        0.0048663620837032795
      ],
      "type": "VEC2"
    },
    {
      "bufferView": 1,
      "byteOffset": 592512,
      "componentType": 5126,
      "count": 14238,
      "max": [
        0.986760675907135,
        0.9954801201820374
      ],
      "min": [
        0.0026330950204283,
        0.0048663620837032795
      ],
      "type": "VEC2"
    },
    {
      "bufferView": 1,
      "byteOffset": 706416,
      "componentType": 5126,
      "count": 14238,
      "max": [
        0.986760675907135,
        0.9954801201820374
      ],
      "min": [
        0.0026330950204283,
        0.0048663620837032795
      ],
      "type": "VEC2"
    },
    {
      "bufferView": 1,
      "byteOffset": 820320,
      "componentType": 5126,
      "count": 14238,
      "max": [
        0.986760675907135,
        0.9954801201820374
      ],
      "min": [
        0.0026330950204283,
        0.0048663620837032795
      ],
      "type": "VEC2"
    },
    {
      "bufferView": 0,
      "byteOffset": 5016,
      "componentType": 5125,
      "count": 40554,
      "type": "SCALAR"
    }
  ],
  "asset": {
    "extras": {
      "author": "Wholock (https://sketchfab.com/wholock)",
      "license": "CC-BY-4.0 (http://creativecommons.org/licenses/by/4.0/)",
      "source": "https://sketchfab.com/3d-models/star-trek-olympic-class-539ee999e0b548379d6de658bf883930",
      "title": "Star Trek - Olympic Class"
    },
    "generator": "Sketchfab-12.68.0",
    "version": "2.0"
  },
  "bufferViews": [
    {
      "buffer": 0,
      "byteLength": 167232,
      "name": "floatBufferViews",
      "target": 34963
    },
    {
      "buffer": 0,
      "byteLength": 934224,
      "byteOffset": 167232,
      "byteStride": 8,
      "name": "floatBufferViews",
      "target": 34962
    },
    {
      "buffer": 0,
      "byteLength": 353208,
      "byteOffset": 1101456,
      "byteStride": 12,
      "name": "floatBufferViews",
      "target": 34962
    }
  ],
  "buffers": [
    {
      "byteLength": 1454664,
      "uri": "scene.bin"
    }
  ],
  "images": [
    {
      "uri": "textures/Olympic_decals_1_baseColor.png"
    },
    {
      "uri": "textures/Olympic_decals_1_metallicRoughness.png"
    },
    {
      "uri": "textures/Olympic_diffuse_1_baseColor.png"
    },
    {
      "uri": "textures/Olympic_diffuse_1_metallicRoughness.png"
    },
    {
      "uri": "textures/Olympic_diffuse_1_emissive.png"
    }
  ],
  "materials": [
    {
      "alphaMode": "BLEND",
      "doubleSided": true,
      "name": "Olympic_decals_1",
      "pbrMetallicRoughness": {
        "baseColorTexture": {
          "index": 0
        },
        "metallicFactor": 0.0,
        "metallicRoughnessTexture": {
          "index": 1
        }
      }
    },
    {
      "doubleSided": true,
      "emissiveFactor": [
        1.0,
        1.0,
        1.0
      ],
      "emissiveTexture": {
        "index": 4
      },
      "name": "Olympic_diffuse_1",
      "pbrMetallicRoughness": {
        "baseColorTexture": {
          "index": 2
        },
        "metallicFactor": 0.0,
        "metallicRoughnessTexture": {
          "index": 3
        }
      }
    }
  ],
  "meshes": [
    {
      "name": "Olympic_Class_Olympic_decals_1_0",
      "primitives": [
        {
          "attributes": {
            "NORMAL": 1,
            "POSITION": 0,
            "TEXCOORD_0": 2,
            "TEXCOORD_1": 3,
            "TEXCOORD_2": 4,
            "TEXCOORD_3": 5,
            "TEXCOORD_4": 6,
            "TEXCOORD_5": 7
          },
          "indices": 8,
          "material": 0,
          "mode": 4
        }
      ]
    },
    {
      "name": "Olympic_Class_Olympic_diffuse_1_0",
      "primitives": [
        {
          "attributes": {
            "NORMAL": 10,
            "POSITION": 9,
            "TEXCOORD_0": 11,
            "TEXCOORD_1": 12,
            "TEXCOORD_2": 13,
            "TEXCOORD_3": 14,
            "TEXCOORD_4": 15,
            "TEXCOORD_5": 16,
            "TEXCOORD_6": 17,
            "TEXCOORD_7": 18
          },
          "indices": 19,
          "material": 1,
          "mode": 4
        }
      ]
    }
  ],
  "nodes": [
    {
      "children": [
        1
      ],
      "matrix": [
        -1.0,
        -6.290011496532519e-32,
        2.832769343193999e-16,
        0.0,
        2.832769343193999e-16,
        -2.220446049250313e-16,
        1.0,
        0.0,
        0.0,
        1.0,
        2.220446049250313e-16,
        0.0,
        -0.00064849853515625,
        -3.6591823321385775e-19,
        0.00164794921875,
        1.0
      ],
      "name": "Sketchfab_model"
    },
    {
      "children": [
        2
      ],
      "matrix": [
        1.0,
        0.0,
        0.0,
        0.0,
        0.0,
        0.0,
        1.0,
        0.0,
        0.0,
        -1.0,
        0.0,
        0.0,
        0.0,
        0.0,
        0.0,
        1.0
      ],
      "name": "e2d0ae9becfe4dff97d008be33d97fb0.fbx"
    },
    {
      "children": [
        3,
        6,
        9
      ],
      "name": "RootNode"
    },
    {
      "children": [
        4,
        5
      ],
      "name": "Olympic_Class"
    },
    {
      "mesh": 0,
      "name": "Olympic_Class_Olympic_decals_1_0"
    },
    {
      "mesh": 1,
      "name": "Olympic_Class_Olympic_diffuse_1_0"
    },
    {
      "children": [
        7
      ],
      "matrix": [
        0.7071067811865476,
        0.0,
        0.7071067811865475,
        0.0,
        -0.5792279653395692,
        0.5735764363510459,
        0.5792279653395694,
        0.0,
        -0.4055797876726388,
        -0.819152044288992,
        0.4055797876726388,
        0.0,
        -200.0,
        200.0,
        200.0,
        1.0
      ],
      "name": "Light"
    },
    {
      "children": [
        8
      ],
      "matrix": [
        1.0,
        0.0,
        0.0,
        0.0,
        0.0,
        2.220446049250313e-16,
        1.0,
        0.0,
        0.0,
        -1.0,
        2.220446049250313e-16,
        0.0,
        0.0,
        0.0,
        0.0,
        1.0
      ],
      "name": "Object_7"
    },
    {
      "name": "Object_8"
    },
    {
      "children": [
        10
      ],
      "matrix": [
        2.220446049250313e-16,
        0.0,
        -1.0,
        0.0,
        0.0,
        1.0,
        0.0,
        0.0,
        1.0,
        0.0,
        2.220446049250313e-16,
        0.0,
        0.0,
        0.0,
        975.8494262695313,
        1.0
      ],
      "name": "Camera"
    },
    {
      "name": "Object_10"
    }
  ],
  "samplers": [
    {
      "magFilter": 9729,
      "minFilter": 9987,
      "wrapS": 10497,
      "wrapT": 10497
    }
  ],
  "scene": 0,
  "scenes": [
    {
      "name": "Sketchfab_Scene",
      "nodes": [
        0
      ]
    }
  ],
  "textures": [
    {
      "sampler": 0,
      "source": 0
    },
    {
      "sampler": 0,
      "source": 1
    },
    {
      "sampler": 0,
      "source": 2
    },
    {
      "sampler": 0,
      "source": 3
    },
    {
      "sampler": 0,
      "source": 4
    }
  ]
}
